<svg xmlns="http://www.w3.org/2000/svg" viewBox="0 0 720 420"><rect width="720" height="420" rx="28" fill="#07172b"/><g stroke="#31577d" stroke-width="2"><path d="M105 80h250M105 150h250M105 220h250M105 290h250"/><path d="M105 80v210M175 80v210M245 80v210M315 80v210"/></g><g fill="#0bb8d9"><circle cx="105" cy="80" r="8"/><circle cx="175" cy="150" r="8"/><circle cx="245" cy="220" r="8"/><circle cx="315" cy="290" r="8"/><circle cx="315" cy="80" r="8"/></g><path d="M105 80C150 130 210 185 245 220S290 265 315 290" stroke="#74e9f5" stroke-width="5" fill="none" stroke-linecap="round"/><g stroke="#74e9f5" fill="#0d2948" stroke-width="4"><circle cx="455" cy="112" r="35"/><circle cx="560" cy="206" r="35"/><circle cx="455" cy="300" r="35"/></g><g stroke="#0bb8d9" stroke-width="5" fill="none" stroke-linecap="round"><path d="M350 185h70M490 132l45 48M490 280l45-48"/></g><g fill="#eafaff" font-family="Arial" font-weight="800" font-size="22"><text x="415" y="119">S</text><text x="551" y="213">NN</text><text x="423" y="307">C</text></g></svg>